<?xml version="1.0" encoding="utf-8"?>
<!-- Generator: Adobe Illustrator 26.3.1, SVG Export Plug-In . SVG Version: 6.00 Build 0)  -->
<svg version="1.1" id="Layer_1" xmlns="http://www.w3.org/2000/svg" xmlns:xlink="http://www.w3.org/1999/xlink" x="0px" y="0px"
	 viewBox="0 0 291.24 140.51" style="enable-background:new 0 0 291.24 140.51;" xml:space="preserve">
<style type="text/css">
	.st0{fill:#00205C;}
	.st1{fill-rule:evenodd;clip-rule:evenodd;fill:#00205C;}
</style>
<g>
	<g>
		<rect x="77.94" y="45.56" class="st0" width="1.99" height="89.94"/>
	</g>
	<g>
		<path class="st1" d="M44.27,77.57l-6.62-17.15L48,45.81l13.42,5.61L44.27,77.57z M23.98,109.27l-13.87-6.62l18.2-28L10.71,27.8
			l14.84,6.71l16.68,45.31L23.98,109.27z M58.37,126.54l-14.8-7.68l-7.84-23.1l7.86-13.38L58.37,126.54z"/>
	</g>
	<g>
		<g>
			<path class="st0" d="M105.9,79.75c-5.13,2.41-8.33,0.85-8.33-3.83v-2.07l5.13-2.41v1.76c0,2.21,1.04,2.93,3.06,1.98
				c1.98-0.93,2.97-2.57,2.97-4.41c0-2.39-1.53-3.29-4.5-4.1c-3.06-0.77-6.39-2.17-6.39-6.36c0-4.32,2.79-9.37,8.19-11.91
				c4.73-2.22,7.88-0.46,7.88,3.99v1.94l-5.09,2.39v-1.8c0-1.85-0.95-2.75-2.84-1.86c-1.62,0.76-2.7,2.3-2.7,3.97
				c0,2.52,1.49,3.13,4.82,3.99c3.56,0.98,6.08,2.5,6.08,6.55C114.18,72.39,110.85,77.42,105.9,79.75z"/>
		</g>
		<g>
			<path class="st0" d="M117.2,73.76V43.79l5.58-2.62v29.97L117.2,73.76z"/>
		</g>
		<g>
			<path class="st0" d="M139.7,63.19l-5.81-10.05l-2.12-3.78v17.55l-5.13,2.41V39.35l4.82-2.26l5.54,10.4l1.98,3.84V33.55l5.04-2.37
				v29.97L139.7,63.19z"/>
		</g>
		<g>
			<path class="st0" d="M161.53,52.92l-0.76-2.03c-0.99,2.45-3.06,4.5-5.49,5.64c-4.95,2.33-7.7,0.11-7.7-4.21V36.66
				c0-4.1,3.15-9.27,8.55-11.81c5.4-2.54,8.28-0.34,8.28,3.89v3.11l-5.36,2.52v-3.33c0-1.44-0.9-2.28-2.88-1.35
				c-1.98,0.93-2.93,2.68-2.93,4.17v15.98c0,1.49,1.04,2.3,2.97,1.39c1.98-0.93,2.97-2.7,2.97-4.19v-4.19l-2.93,1.38v-4.05
				l8.33-3.91v15.21L161.53,52.92z"/>
		</g>
		<g>
			<path class="st0" d="M179.8,44.33V32.05l-6.26,2.94v12.29l-5.58,2.62V19.92l5.58-2.62v12.69l6.26-2.94V14.36l5.63-2.64v29.97
				L179.8,44.33z"/>
		</g>
		<g>
			<path class="st0" d="M200.06,34.81l-0.99-5.43l-5.31,2.5l-1.08,6.4l-5.22,2.45l6.03-32.81l6.26-2.94l5.99,27.16L200.06,34.81z
				 M196.55,14.59l-2.02,12.52l3.83-1.8L196.55,14.59z"/>
		</g>
		<g>
			<path class="st0" d="M98.43,121.87V91.9l14.31-6.73v4.82l-8.73,4.1v7.43l6.03-2.84v4.41l-6.03,2.84v8.33l8.73-4.1v5L98.43,121.87
				z"/>
		</g>
		<g>
			<path class="st0" d="M126.87,108.5l-3.51-8.7l-3.83,12.15l-5.45,2.56l6.17-18.02l-5.81-12.12l5.85-2.75l3.29,8.81l3.6-12.04
				l5.49-2.58l-5.99,17.22l6.03,12.74L126.87,108.5z"/>
		</g>
		<g>
			<path class="st0" d="M144.25,88.86l-3.65,1.71v11.48l-5.58,2.62V74.7l9.23-4.34c4.23-1.99,6.8-0.76,6.8,3.56v5.04
				C151.04,83.23,148.48,86.87,144.25,88.86z M145.64,76.55c0-1.49-0.59-1.98-1.98-1.32l-3.06,1.44v9.59l3.06-1.44
				c1.4-0.66,1.98-1.7,1.98-3.18V76.55z"/>
		</g>
		<g>
			<path class="st0" d="M154.02,95.74V65.77l14.31-6.73v4.82l-8.73,4.1v7.43l6.03-2.84v4.41l-6.03,2.84v8.33l8.73-4.1v5
				L154.02,95.74z"/>
		</g>
		<g>
			<path class="st0" d="M185.21,81.26c-2.21,1.04-3.06-0.36-3.06-2.97v-5.63c0-1.4-0.72-2.23-2.3-1.49l-2.93,1.38v12.42l-5.58,2.62
				V57.62l9.23-4.34c4.1-1.93,6.84-0.88,6.84,3.31v4.23c0,2.25-1.04,4.4-3.38,6.22c2.34-0.47,3.47,0.98,3.47,2.92v5.49
				c0,1.4,0.4,2.15,1.08,2.55v1.67L185.21,81.26z M181.97,59.38c0-1.35-0.59-1.89-1.98-1.23l-3.06,1.44v8.82l2.84-1.33
				c1.44-0.68,2.21-1.8,2.21-3.42V59.38z"/>
		</g>
		<g>
			<path class="st0" d="M191.1,78.31V48.34l5.58-2.62v29.97L191.1,78.31z"/>
		</g>
		<g>
			<path class="st0" d="M200.6,73.85V43.87l14.31-6.73v4.82l-8.73,4.1v7.43l6.03-2.84v4.41l-6.03,2.84v8.33l8.73-4.1v5L200.6,73.85z
				"/>
		</g>
		<g>
			<path class="st0" d="M230.93,59.59l-5.81-10.05l-2.12-3.78v17.55l-5.13,2.41V35.75l4.82-2.26l5.54,10.4l1.98,3.84V29.95
				l5.04-2.37v29.97L230.93,59.59z"/>
		</g>
		<g>
			<path class="st0" d="M247.45,52.5c-5.36,2.52-8.64,0.46-8.64-4.17V33.47c0-4.64,3.29-9.78,8.64-12.3c5.31-2.5,8.1-0.48,8.1,4.02
				v3.65l-5,2.35v-3.6c0-1.76-0.99-2.51-3.02-1.55c-2.03,0.95-3.06,2.65-3.06,4.32v15.75c0,1.67,1.04,2.39,3.06,1.44
				c2.03-0.95,3.02-2.63,3.02-4.39v-3.6l5-2.35v3.65C255.55,45.36,252.76,50,247.45,52.5z"/>
		</g>
		<g>
			<path class="st0" d="M258.7,46.53V16.56l14.31-6.73v4.82l-8.73,4.1v7.43l6.03-2.84v4.41l-6.03,2.84v8.33l8.73-4.1v5L258.7,46.53z
				"/>
		</g>
	</g>
</g>
</svg>
